<?xml version="1.0" standalone="no"?>
<!DOCTYPE svg PUBLIC "-//W3C//DTD SVG 20010904//EN"
 "http://www.w3.org/TR/2001/REC-SVG-20010904/DTD/svg10.dtd">
<svg version="1.0" xmlns="http://www.w3.org/2000/svg"
 width="1024.000000pt" height="1024.000000pt" viewBox="0 0 1024.000000 1024.000000"
 preserveAspectRatio="xMidYMid meet">
<metadata>
Created by potrace 1.16, written by Peter Selinger 2001-2019
</metadata>
<g transform="translate(0.000000,1024.000000) scale(0.100000,-0.100000)"
fill="#000000" stroke="none">
<path d="M5415 7889 c-286 -50 -539 -143 -832 -305 -164 -91 -489 -325 -600
-433 -24 -23 -55 -43 -70 -46 -16 -3 -80 -12 -143 -20 -210 -29 -504 -114
-730 -212 -651 -282 -1280 -801 -1743 -1436 -189 -258 -327 -519 -327 -615 0
-35 6 -45 56 -91 l56 -52 -43 -22 c-56 -29 -78 -61 -85 -124 -19 -156 126
-350 446 -595 182 -139 395 -266 685 -407 341 -167 657 -285 1021 -381 78 -21
81 -23 102 -64 76 -158 255 -383 416 -525 78 -69 206 -164 212 -158 3 2 -1 38
-7 78 -16 103 -2 289 22 289 5 0 35 -17 67 -39 142 -96 319 -181 502 -241 128
-42 367 -96 515 -115 l49 -7 -61 66 c-94 100 -158 180 -222 275 -63 95 -191
305 -191 315 0 3 28 6 63 6 122 0 433 42 640 86 l117 26 95 -100 c206 -216
427 -361 677 -440 127 -41 381 -83 391 -65 3 5 -4 49 -14 98 -26 125 -24 231
5 346 52 204 127 322 391 618 189 212 252 313 276 446 23 121 -22 248 -126
362 l-56 62 28 8 c15 4 84 8 153 8 252 0 368 -61 765 -400 491 -419 835 -646
1214 -799 118 -48 210 -80 216 -74 2 2 -2 53 -10 113 -71 571 -266 1200 -503
1620 -37 67 -127 207 -167 262 -7 10 -2 28 18 66 306 561 453 971 587 1647 38
190 60 322 60 355 0 23 -19 16 -184 -67 -395 -198 -646 -395 -1166 -918 -195
-196 -375 -370 -400 -387 -73 -49 -183 -101 -262 -123 -76 -22 -257 -38 -302
-26 l-27 7 34 39 c109 128 147 347 93 544 -14 49 -30 94 -35 99 -33 33 -433
-116 -646 -242 -48 -28 -90 -51 -94 -51 -3 0 -60 53 -125 119 l-118 118 54 28
c82 43 154 93 187 130 41 47 48 94 26 164 -15 47 -32 69 -114 151 -53 53 -170
152 -261 220 -93 71 -215 175 -281 240 -95 94 -122 129 -153 190 -63 129 -59
220 14 338 l39 62 -42 -1 c-23 0 -91 -9 -152 -20z m-65 -237 c0 -83 45 -224
95 -297 50 -74 222 -239 365 -350 251 -195 325 -259 369 -313 l32 -41 -33 -24
c-18 -14 -75 -46 -126 -71 l-92 -46 -76 57 -75 58 113 54 c68 33 106 56 96 58
-10 3 -74 -12 -143 -31 l-124 -36 -122 70 c-68 38 -126 70 -131 70 -42 0 76
69 210 123 23 9 42 21 42 27 0 15 -51 3 -207 -49 l-141 -47 -35 18 c-19 9 -70
31 -113 48 -44 17 -88 35 -99 40 -11 5 -33 13 -49 17 l-30 9 35 26 c52 40 194
125 284 171 54 28 74 42 61 45 -40 9 -241 -78 -410 -176 l-68 -40 -62 19 c-33
11 -99 26 -146 34 -147 27 -140 19 -68 74 79 60 214 151 253 171 17 8 33 19
36 24 4 4 15 3 26 -3 15 -8 25 -7 39 4 11 8 14 14 7 15 -24 0 -13 20 25 43 20
13 73 43 117 67 99 53 58 44 -101 -21 -151 -62 -302 -146 -462 -255 l-123 -85
-102 6 c-170 10 -209 13 -212 17 -12 12 299 231 450 316 173 97 371 181 560
236 66 19 123 35 128 36 4 0 7 -30 7 -68z m3725 -864 c-145 -630 -303 -1044
-568 -1487 -33 -56 -47 -88 -41 -96 227 -312 343 -535 478 -925 93 -265 223
-797 201 -819 -15 -14 -362 174 -540 292 -212 142 -286 200 -693 546 l-122
105 52 53 c29 29 56 53 61 53 5 0 43 -29 86 -63 162 -135 402 -300 598 -410
85 -49 320 -160 363 -172 24 -7 24 -6 5 8 -11 7 -51 31 -90 52 -132 72 -340
208 -490 321 -128 95 -372 289 -413 328 -10 10 -7 24 14 72 14 32 28 61 30 63
2 2 79 -35 171 -82 190 -96 266 -129 473 -198 133 -45 182 -58 168 -43 -4 3
-69 34 -145 68 -184 83 -576 292 -624 332 -14 12 -14 21 -1 86 8 40 16 74 17
76 1 2 56 -6 121 -17 180 -30 368 -53 400 -49 31 3 -75 34 -363 105 l-153 38
0 96 0 96 200 73 c110 40 200 75 200 78 0 9 -117 -9 -260 -42 -80 -19 -146
-33 -148 -31 -8 7 -41 158 -37 165 18 29 451 335 670 473 82 52 34 36 -110
-36 -183 -91 -231 -119 -461 -271 -73 -47 -134 -86 -138 -86 -3 0 -20 28 -37
61 l-31 62 65 66 c35 36 82 86 103 110 64 71 351 338 465 431 58 47 165 129
237 180 73 51 130 95 128 98 -6 6 -204 -109 -311 -181 -120 -80 -231 -167
-385 -301 -141 -123 -155 -135 -222 -188 -25 -20 -49 -46 -53 -58 -3 -11 -13
-20 -21 -20 -8 0 -17 -8 -21 -17 -10 -28 -24 -43 -35 -37 -6 4 -5 10 3 16 10
6 6 7 -11 3 -20 -5 -33 2 -62 32 l-38 39 323 325 c288 290 435 428 577 540
149 117 453 316 458 299 2 -5 -17 -101 -43 -212z m-4690 172 c239 -17 436 -57
685 -140 370 -122 748 -374 1065 -709 241 -254 485 -423 702 -486 245 -71 475
-49 706 67 95 47 94 48 191 -73 86 -106 122 -181 145 -304 32 -168 36 -314 12
-423 -33 -149 -138 -324 -222 -367 -27 -15 -33 -13 -121 31 -244 122 -525 129
-741 17 -91 -47 -223 -177 -327 -323 -437 -614 -673 -810 -1119 -929 -260 -70
-580 -120 -883 -137 l-117 -7 -37 28 c-68 52 -197 96 -509 176 -170 43 -367
94 -437 113 -71 18 -128 31 -128 28 0 -8 82 -155 110 -197 46 -69 52 -84 32
-79 -83 18 -397 99 -477 123 -141 43 -335 114 -335 122 0 4 17 10 38 14 66 12
205 69 292 120 113 67 280 232 373 371 183 276 306 658 277 865 -6 41 -13 82
-16 92 -4 12 1 17 18 18 l23 2 -22 4 c-13 2 -23 11 -23 20 0 19 -103 216 -168
320 -26 43 -82 124 -124 181 -80 108 -278 336 -285 328 -3 -3 43 -89 103 -191
180 -314 300 -593 324 -758 22 -150 -31 -380 -139 -602 -53 -108 -65 -125
-118 -166 -72 -57 -113 -78 -228 -117 -89 -31 -261 -66 -292 -60 -10 2 2 14
33 35 129 84 212 232 245 436 15 98 6 432 -15 537 -48 236 -56 274 -64 282 -5
5 -7 -110 -4 -254 4 -274 -7 -411 -45 -568 -65 -263 -225 -403 -474 -417 -197
-11 -385 47 -834 259 -277 130 -302 148 -325 227 -21 74 59 50 376 -111 140
-71 259 -128 264 -126 13 4 -86 132 -182 233 -74 79 -262 240 -390 335 -26 19
-48 42 -48 51 0 9 14 43 30 76 l31 61 77 -5 c67 -4 87 -1 152 22 41 15 99 43
128 61 29 19 56 34 60 34 4 0 13 -26 20 -59 30 -145 124 -266 259 -333 76 -38
93 -42 173 -46 180 -9 333 72 432 228 8 14 27 58 42 99 32 89 36 196 10 281
-18 62 -68 165 -84 175 -20 12 -9 22 63 55 308 142 336 160 369 223 39 78 21
214 -47 353 -19 40 -35 75 -35 78 0 23 -189 175 -264 213 -47 24 -48 25 -30
43 35 33 257 160 419 240 359 177 729 279 1120 309 146 12 157 12 310 1z
m2599 -717 c17 -105 4 -195 -41 -290 -19 -42 -29 -53 -48 -53 -38 0 -182 56
-239 92 -56 36 -116 86 -116 97 0 4 46 28 103 55 56 27 109 52 119 57 25 12
196 77 209 78 4 1 9 -16 13 -36z m-4722 -776 c68 -34 131 -100 166 -175 22
-47 26 -72 27 -142 0 -113 -22 -174 -88 -247 -125 -136 -304 -158 -457 -55
-233 156 -183 539 82 634 78 27 196 21 270 -15z m4628 -1155 c77 -78 100 -124
100 -206 0 -105 -47 -183 -254 -416 -239 -271 -334 -415 -390 -596 -37 -119
-46 -176 -46 -281 l0 -95 -37 7 c-69 13 -197 57 -268 92 -80 41 -224 132 -275
175 -68 58 -199 191 -195 198 3 4 33 18 67 30 118 43 283 132 377 203 200 149
341 305 571 627 158 223 241 320 273 320 10 0 45 -26 77 -58z m-3085 -1056
c288 -72 357 -94 423 -132 99 -58 150 -120 297 -364 49 -80 99 -160 113 -177
13 -18 20 -33 16 -33 -16 0 -208 60 -279 87 -87 33 -266 121 -342 169 -181
115 -398 327 -507 496 -17 25 -16 26 1 22 10 -2 135 -33 278 -68z m-310 -191
c57 -11 65 -17 145 -99 93 -96 90 -87 70 -208 l-13 -77 -38 30 c-73 58 -299
339 -299 371 0 9 26 6 135 -17z"/>
<path d="M4020 6584 c-325 -38 -575 -96 -850 -197 -103 -38 -261 -112 -307
-144 -15 -11 -39 -24 -52 -28 -22 -7 -23 -8 -6 -17 12 -8 20 -7 26 3 8 12 11
11 19 -3 6 -9 17 -15 24 -12 8 3 21 -7 32 -25 10 -17 22 -31 26 -31 15 0 8 29
-9 40 -16 10 -16 11 2 4 11 -4 32 -7 48 -7 15 0 27 -4 27 -9 0 -5 -4 -7 -9 -3
-5 3 -12 1 -16 -5 -4 -6 15 -8 56 -3 44 4 60 3 55 -5 -3 -6 -2 -14 4 -17 6 -4
9 -1 8 7 -2 7 4 14 12 14 8 1 31 3 50 4 31 3 32 3 8 7 -27 4 -40 21 -15 20 41
-1 67 4 62 13 -9 15 7 12 32 -5 14 -10 24 -12 28 -5 3 5 0 10 -7 10 -10 0 -9
3 2 11 12 9 11 10 -7 6 -13 -3 -26 -1 -29 4 -5 8 12 13 44 12 6 -1 12 3 12 8
0 5 9 9 20 9 11 0 20 6 20 13 0 8 3 8 9 -2 8 -12 12 -12 26 3 11 11 30 16 50
15 20 -2 39 3 49 14 19 18 86 24 86 7 0 -5 -4 -10 -10 -10 -5 0 -10 -4 -10
-10 0 -5 10 -10 23 -9 12 0 17 3 11 5 -7 3 -10 14 -7 24 3 11 9 17 14 14 5 -3
16 2 25 11 12 11 29 15 59 12 38 -3 42 -1 37 16 -4 15 -2 18 9 11 25 -15 49
-15 49 2 0 10 -6 14 -14 11 -8 -3 -17 1 -20 9 -4 9 -2 12 5 8 6 -4 15 0 20 7
6 11 11 11 21 1 9 -9 9 -12 -1 -12 -10 0 -11 -3 -2 -13 6 -8 9 -16 6 -18 -2
-3 16 -4 41 -4 24 0 44 4 43 9 -1 13 23 26 52 26 14 0 30 5 37 12 9 9 12 7 12
-9 0 -12 5 -25 12 -29 7 -5 9 -1 6 13 -3 11 0 20 7 20 7 0 10 -10 7 -24 -2
-13 1 -23 7 -23 7 0 9 4 6 10 -3 5 -1 18 5 27 11 17 11 17 6 1 -3 -12 0 -18 9
-18 8 0 15 -5 15 -11 0 -5 5 -7 10 -4 6 3 10 11 10 16 0 6 -4 7 -10 4 -5 -3
-10 -1 -10 4 0 6 7 11 16 11 8 0 13 4 10 9 -4 5 3 7 14 4 11 -3 20 -14 20 -24
0 -11 6 -19 13 -19 19 0 57 29 57 44 0 8 7 17 16 20 24 9 28 7 15 -8 -8 -10
-9 -16 -1 -21 5 -3 10 -1 10 5 0 7 8 9 20 5 12 -4 20 -2 20 5 0 6 -6 8 -12 4
-10 -5 -10 -3 0 7 11 12 14 12 22 -1 8 -13 10 -13 10 0 0 10 3 11 11 3 7 -7
21 -8 39 -3 20 6 32 4 44 -9 16 -15 17 -15 11 4 -6 19 -6 19 8 3 18 -22 28
-23 20 -2 -5 13 -2 15 18 9 13 -4 35 -14 48 -22 13 -8 21 -11 18 -6 -3 5 12 9
34 10 24 1 37 -2 33 -8 -3 -6 -3 -22 1 -37 4 -17 9 -22 14 -14 6 10 15 10 36
2 25 -9 26 -9 15 5 -10 12 -10 15 4 15 9 0 16 -7 16 -15 0 -8 9 -15 20 -15 17
0 19 5 14 25 -5 22 -3 25 21 25 14 0 24 -4 20 -10 -3 -5 -12 -7 -20 -3 -8 3
-15 0 -15 -6 0 -6 4 -11 10 -11 5 0 7 -8 4 -17 -5 -15 -4 -16 5 -3 7 10 13 12
19 4 21 -30 73 -25 65 7 -4 13 0 19 12 19 11 0 15 -5 11 -15 -9 -24 3 -43 25
-38 10 3 27 -1 36 -8 15 -12 16 -12 10 4 -4 10 -7 21 -7 23 0 2 -7 4 -16 4 -8
0 -12 5 -9 10 4 6 10 8 15 5 5 -3 18 -2 28 4 14 7 18 6 18 -9 0 -14 -3 -16
-13 -8 -14 12 -17 1 -7 -26 5 -13 8 -13 20 -1 8 7 14 18 14 24 0 6 5 11 11 11
5 0 8 -4 4 -10 -3 -5 0 -19 7 -32 7 -13 14 -25 15 -26 1 -2 10 1 20 8 17 11
17 11 -1 6 -13 -5 -17 -2 -12 9 3 8 1 15 -4 15 -6 0 -10 8 -9 18 0 10 3 12 6
4 2 -6 9 -10 14 -6 5 3 9 0 9 -5 0 -6 8 -11 18 -11 11 0 24 -10 30 -22 10 -21
11 -22 11 -3 1 15 9 21 34 22 21 2 27 0 18 -6 -19 -12 -6 -42 14 -34 13 5 14
7 3 14 -10 7 -10 9 2 9 21 0 41 -45 26 -60 -8 -8 -6 -9 7 -5 9 4 17 15 17 24
1 13 3 13 12 -3 8 -15 8 -21 0 -24 -7 -2 -12 -8 -12 -13 0 -4 7 -5 17 -2 12 5
14 3 8 -7 -6 -10 -1 -12 23 -8 24 3 29 1 25 -11 -3 -10 -1 -12 4 -6 16 20 61
17 73 -6 7 -11 14 -18 17 -16 2 3 -1 15 -7 27 -10 18 -10 21 2 14 7 -5 23 -7
35 -6 21 3 40 -14 28 -26 -3 -3 -9 -1 -13 5 -5 8 -13 9 -22 3 -11 -7 -12 -10
-2 -10 7 0 11 -4 8 -8 -3 -5 12 -8 32 -8 29 1 37 -3 36 -16 -1 -10 2 -18 7
-18 5 0 9 7 9 15 0 8 5 15 10 15 6 0 10 8 11 18 0 9 9 0 20 -23 11 -22 17 -32
15 -22 -3 9 -1 17 4 17 6 0 10 -4 10 -8 0 -5 11 -14 24 -20 19 -8 27 -8 35 2
6 7 10 15 8 17 -1 2 3 -1 9 -8 6 -7 17 -13 25 -13 11 0 11 2 -1 10 -10 6 -11
10 -2 10 6 0 21 -9 32 -20 20 -20 36 -27 26 -11 -3 5 8 11 24 13 20 3 30 0 30
-9 0 -16 17 -17 22 -1 3 9 6 9 11 1 4 -6 0 -18 -8 -27 -11 -11 -12 -17 -3 -22
6 -4 14 -2 16 4 2 7 10 19 19 27 9 9 10 15 3 15 -6 0 -8 5 -5 10 3 6 1 10 -5
10 -6 0 -8 5 -5 10 4 6 11 8 16 5 5 -4 9 1 9 9 0 19 1 19 34 6 27 -10 35 0 14
17 -7 6 -33 21 -58 34 -25 13 -50 29 -57 35 -17 17 -226 118 -313 152 -121 48
-348 118 -454 141 -229 50 -350 63 -626 66 -146 2 -281 1 -300 -1z"/>
<path d="M6495 5384 c-35 -15 -9 -19 29 -4 23 8 26 7 26 -10 0 -11 -5 -20 -11
-20 -6 0 -9 -6 -6 -14 6 -14 -21 -32 -31 -21 -3 3 0 5 6 5 7 0 12 8 11 18 0 9
-3 12 -5 5 -3 -7 -12 -9 -20 -6 -9 3 -13 0 -11 -8 2 -8 2 -11 0 -7 -3 4 -16 3
-30 -3 -14 -5 -28 -7 -31 -4 -3 3 0 5 6 5 7 0 12 4 12 9 0 4 -12 6 -26 3 -19
-3 -25 -1 -20 7 4 6 1 11 -8 11 -9 0 -13 -6 -10 -14 6 -17 -24 -30 -40 -17 -8
6 -17 6 -26 -1 -12 -8 -12 -9 3 -4 9 3 17 1 17 -4 0 -6 -6 -10 -12 -11 -7 0
-4 -5 7 -10 17 -8 16 -9 -7 -4 -16 3 -28 0 -30 -7 -3 -7 -7 -5 -11 6 -4 10 -3
15 3 11 6 -3 10 -1 10 4 0 6 -7 11 -15 11 -8 0 -15 -6 -15 -14 0 -8 -7 -17
-16 -20 -24 -9 -29 -7 -16 6 17 17 15 38 -3 38 -8 0 -15 -5 -15 -11 0 -5 5 -7
10 -4 6 3 10 1 10 -4 0 -6 -9 -11 -20 -11 -11 0 -20 4 -20 10 0 6 -9 6 -22 1
-28 -10 -72 4 -62 20 4 8 3 9 -5 5 -6 -4 -8 -12 -5 -18 5 -8 1 -9 -12 -5 -17
6 -17 6 -3 -5 13 -11 8 -13 -32 -13 -26 0 -45 3 -43 7 2 4 -1 10 -7 14 -8 4
-9 3 -5 -4 5 -8 0 -12 -13 -12 -15 0 -19 -5 -16 -17 3 -10 -1 -4 -9 12 -10 20
-15 24 -16 13 0 -10 -5 -18 -11 -18 -5 0 -7 4 -4 10 3 6 -1 7 -10 4 -12 -5
-13 -10 -4 -20 6 -8 15 -12 19 -9 5 3 11 1 15 -5 3 -5 -3 -10 -14 -10 -12 0
-21 5 -21 10 0 14 -16 12 -32 -3 -7 -8 -19 -12 -27 -9 -9 3 -11 0 -6 -8 5 -9
4 -11 -3 -6 -19 12 -14 25 13 32 27 7 29 12 15 34 -8 13 -10 12 -10 -2 0 -10
-5 -18 -11 -18 -5 0 -8 4 -4 9 3 5 1 12 -5 16 -5 3 -10 1 -10 -4 0 -6 -9 -11
-21 -11 -13 0 -18 4 -13 12 5 8 2 9 -10 5 -10 -4 -22 -7 -27 -7 -5 0 -9 -5 -9
-11 0 -5 5 -7 10 -4 6 4 16 2 23 -3 7 -5 19 -8 28 -7 12 2 15 -3 11 -17 -3
-15 -11 -19 -28 -15 -13 2 -24 1 -24 -3 0 -4 -6 -10 -13 -13 -10 -4 -13 2 -9
18 3 20 1 23 -18 18 -13 -3 -19 -11 -16 -19 3 -8 1 -14 -4 -14 -6 0 -10 5 -10
10 0 6 -5 10 -11 10 -5 0 -8 -3 -6 -7 3 -5 -16 -9 -42 -11 -33 -1 -42 1 -31 8
13 8 12 10 -3 10 -10 0 -15 5 -12 10 8 13 -1 13 -42 -2 -28 -10 -36 -10 -42 1
-6 9 -11 10 -15 2 -4 -6 -1 -11 6 -12 7 0 4 -4 -7 -9 -30 -13 -39 -12 -26 4
10 12 8 13 -9 9 -13 -4 -26 0 -32 8 -8 11 -9 11 -5 -2 4 -12 -5 -19 -32 -28
-45 -13 -76 -14 -43 0 19 7 21 11 10 23 -7 8 -17 11 -22 8 -5 -3 -40 -6 -79
-8 -51 -2 -66 1 -58 9 6 6 11 16 11 21 0 6 -5 4 -10 -4 -6 -10 -10 -11 -10 -2
0 6 -5 12 -11 12 -8 0 -8 -4 0 -14 9 -11 5 -15 -25 -21 -24 -4 -39 -2 -44 5
-5 9 -9 9 -14 1 -4 -6 -4 -11 1 -11 21 -1 -45 -29 -67 -29 -23 0 -23 1 -5 8
11 5 23 7 28 4 4 -2 7 1 7 6 0 6 -7 11 -15 11 -8 0 -15 4 -15 9 0 5 -9 7 -20
4 -11 -3 -20 -9 -20 -14 0 -5 8 -5 17 -2 15 6 16 5 3 -9 -9 -10 -17 -12 -21
-6 -4 7 -9 6 -13 -1 -4 -6 -17 -11 -29 -10 -19 0 -19 2 6 11 15 5 25 14 21 19
-3 5 -10 7 -15 4 -5 -4 -9 -2 -9 4 0 7 -10 6 -30 0 -16 -6 -30 -17 -30 -24 0
-11 -20 -25 -36 -25 -12 0 -1 19 14 23 12 3 10 5 -8 7 -23 1 -23 2 -5 10 19 8
19 9 -3 9 -19 1 -22 -3 -16 -26 4 -19 3 -24 -4 -14 -7 10 -14 10 -30 2 -28
-15 -32 -14 -32 7 0 13 -2 14 -9 3 -7 -11 -11 -10 -21 5 -10 16 -11 16 -6 2 3
-12 0 -18 -9 -18 -9 0 -12 -6 -9 -15 4 -8 1 -15 -6 -15 -6 0 -9 3 -6 8 2 4 -2
16 -10 27 -8 10 -14 14 -14 9 0 -12 -15 -14 -84 -14 -36 0 -47 -3 -43 -13 3
-8 -1 -14 -9 -14 -7 0 -11 4 -8 8 7 12 -32 30 -50 23 -9 -3 -13 -10 -10 -15 3
-5 -2 -6 -10 -3 -9 3 -16 10 -16 14 0 9 -36 6 -62 -5 -10 -4 -18 -3 -18 3 0
11 -33 9 -62 -3 -13 -5 -18 -2 -19 11 0 11 -3 14 -6 6 -2 -6 -9 -10 -14 -7 -5
3 -18 1 -30 -6 -17 -9 -23 -8 -30 2 -7 11 -9 11 -9 -1 -1 -9 -6 -5 -15 10 -13
23 -14 23 -15 5 -1 -16 -4 -14 -16 10 l-15 30 5 -33 c5 -27 3 -32 -12 -30 -9
2 -22 10 -29 18 -7 9 -12 10 -13 4 0 -18 -32 -26 -42 -12 -6 10 -8 10 -8 -2 0
-12 -2 -12 -8 -2 -5 7 -16 10 -26 6 -15 -6 -15 -7 0 -19 15 -10 13 -12 -14
-13 -19 0 -33 5 -36 15 -5 13 -4 14 9 3 13 -11 14 -10 9 4 -4 11 -15 16 -33
14 -14 -2 -24 -7 -21 -13 3 -5 10 -9 15 -7 6 2 5 -2 -2 -9 -9 -9 -15 -8 -28 5
-9 9 -20 14 -25 11 -5 -3 -10 0 -12 6 -5 16 -40 -3 -77 -41 -15 -17 -31 -27
-34 -23 -4 3 -7 -2 -7 -11 0 -14 -6 -17 -25 -14 -14 3 -25 1 -25 -3 0 -5 10
-9 23 -9 21 -1 21 -1 -6 -18 -15 -9 -30 -25 -33 -34 -3 -10 -11 -18 -17 -18
-7 0 -19 -5 -27 -10 -13 -8 -12 -11 5 -24 12 -9 15 -15 7 -16 -7 0 -10 -5 -6
-11 5 -8 -1 -10 -20 -7 -14 3 -26 1 -26 -4 0 -6 423 -8 1098 -5 1140 4 1196 6
1627 52 282 30 377 35 770 36 473 1 737 8 729 20 -3 5 2 12 10 15 28 11 17 24
-19 24 -19 0 -35 5 -35 11 0 7 -9 9 -21 6 -15 -4 -19 -2 -15 9 3 8 1 14 -4 14
-6 0 -10 6 -10 14 0 19 -26 40 -35 26 -3 -5 1 -10 10 -10 9 0 13 -5 10 -11 -5
-7 -13 -4 -26 7 -10 9 -16 22 -12 28 4 6 0 5 -9 -2 -13 -11 -17 -9 -22 13 -4
14 -11 23 -16 20 -10 -6 -32 29 -24 38 3 3 -4 3 -16 0 -17 -4 -21 -2 -18 12 2
10 -3 20 -9 22 -7 3 -13 -4 -14 -14 0 -14 -2 -15 -7 -3 -4 8 -13 15 -19 16
-29 2 -33 5 -33 19 0 8 -5 15 -11 15 -5 0 -7 -4 -4 -10 11 -17 -5 -32 -21 -19
-10 8 -14 8 -14 1 0 -6 -7 -9 -15 -6 -24 9 -18 22 13 27 26 4 26 4 -4 6 -21 0
-34 -5 -38 -15 -3 -8 -11 -12 -17 -8 -8 4 -7 9 2 15 7 4 10 11 6 16 -5 4 -16
-3 -26 -16 -12 -16 -24 -22 -35 -18 -10 4 -14 12 -11 17 5 8 12 7 23 -2 13
-11 14 -11 11 1 -8 23 -27 24 -46 2 -21 -25 -33 -27 -33 -6 0 17 -17 20 -22 4
-2 -7 -32 -12 -71 -13 -52 -2 -66 1 -63 11 3 7 -1 13 -9 13 -8 0 -15 -6 -15
-13 0 -17 -42 -16 -63 2 -14 11 -20 11 -33 0 -13 -10 -17 -10 -25 2 -7 12 -9
12 -9 -1 0 -11 -2 -12 -8 -3 -6 10 -15 10 -40 1 -27 -10 -34 -10 -41 1 -7 10
-13 10 -29 2 -26 -14 -52 -14 -52 -1 0 5 6 7 14 4 8 -3 17 -1 20 4 3 5 -10 7
-30 5 -29 -3 -37 0 -41 17 -3 11 -9 17 -14 14 -5 -3 -7 -10 -4 -15 4 -5 1 -9
-4 -9 -6 0 -11 4 -11 8 0 4 -9 8 -20 8 -11 0 -20 -4 -20 -8 0 -4 8 -8 18 -8
13 0 14 -2 3 -9 -7 -5 -11 -13 -7 -19 3 -5 0 -12 -7 -15 -10 -4 -13 2 -9 19 4
20 0 24 -22 24 -32 0 -33 -8 -3 -20 l22 -9 -22 0 c-13 -1 -23 3 -23 8 0 5 -9
11 -20 14 -11 3 -20 13 -20 22 0 11 -5 15 -14 12 -8 -3 -17 -3 -20 1 -11 11
-30 9 -61 -4z"/>
<path d="M5075 4674 c-11 -2 -81 -10 -155 -19 -402 -48 -944 -182 -1323 -327
-70 -27 -77 -32 -71 -51 3 -12 10 -27 15 -33 5 -6 20 -42 35 -80 36 -94 36
-191 0 -269 l-25 -55 142 -69 c243 -119 458 -178 617 -168 307 19 581 269 819
747 68 137 141 305 141 323 0 7 -155 7 -195 1z m5 -139 c0 -8 -9 -24 -20 -35
-16 -16 -34 -20 -87 -20 -150 -1 -580 -59 -777 -105 -102 -24 -97 -15 9 16
195 57 600 134 800 152 22 2 48 4 58 5 9 1 17 -5 17 -13z"/>
<path d="M2038 5355 c-4 -4 0 -21 8 -38 13 -25 14 -37 5 -69 -18 -59 -73 -85
-138 -63 -22 7 -23 5 -23 -44 0 -127 91 -221 215 -221 125 0 218 97 219 226 0
48 -6 70 -28 108 -41 70 -93 100 -180 104 -39 2 -74 1 -78 -3z"/>
</g>
</svg>
